<svg xmlns="http://www.w3.org/2000/svg" xmlns:xlink="http://www.w3.org/1999/xlink" width="248px" height="107px" version="1.1"><defs/><g transform="translate(0.5,0.5)"><rect x="3" y="2" width="100" height="40" fill="#d0d0d0" stroke="#d0d0d0" transform="translate(2,3)" opacity="1"/><rect x="3" y="2" width="100" height="40" fill="#ffffff" stroke="#000000" pointer-events="none"/><path d="M 53 42 L 53 102" fill="none" stroke="#d0d0d0" stroke-miterlimit="10" stroke-dasharray="3 3" transform="translate(2,3)" opacity="1"/><path d="M 53 42 L 53 102" fill="none" stroke="#000000" stroke-miterlimit="10" stroke-dasharray="3 3" pointer-events="none"/><g text-anchor="middle" font-size="12px"><text x="53" y="26" fill="#000000" font-family="Helvetica">Browser</text></g><rect x="113" y="2" width="100" height="40" fill="#d0d0d0" stroke="#d0d0d0" transform="translate(2,3)" opacity="1"/><rect x="113" y="2" width="100" height="40" fill="#ffffff" stroke="#000000" pointer-events="none"/><path d="M 163 42 L 163 102" fill="none" stroke="#d0d0d0" stroke-miterlimit="10" stroke-dasharray="3 3" transform="translate(2,3)" opacity="1"/><path d="M 163 42 L 163 102" fill="none" stroke="#000000" stroke-miterlimit="10" stroke-dasharray="3 3" pointer-events="none"/><g text-anchor="middle" font-size="12px"><text x="163" y="26" fill="#000000" font-family="Helvetica">CouchDB</text></g><rect x="2" y="74" width="41" height="20" fill="none" stroke="none" pointer-events="none"/><g text-anchor="middle" font-size="12px"><text x="23" y="88" fill="#000000" font-family="Helvetica">HTML</text></g><path d="M 54 64 L 94 64 Q 104 64 114 64 L 145 64" fill="none" stroke="#00cc00" stroke-miterlimit="10" pointer-events="none"/><path d="M 152 64 L 145 68 L 145 61 Z" fill="#00cc00" stroke="#00cc00" stroke-miterlimit="10" pointer-events="none"/><g text-anchor="middle" font-size="11px"><rect fill="#ffffff" stroke="none" x="88" y="49" width="32" height="14" stroke-width="0"/><text x="104" y="58" fill="#000000" font-family="Helvetica">READ</text></g><rect x="154" y="64" width="20" height="20" fill="#d0d0d0" stroke="#d0d0d0" transform="translate(2,3)" opacity="1"/><rect x="154" y="64" width="20" height="20" fill="#33ff33" stroke="#00cc00" pointer-events="none"/><rect x="165" y="48" width="81" height="50" fill="none" stroke="none" pointer-events="none"/><g text-anchor="middle" font-size="12px"><text x="206" y="63" fill="#000000" font-family="Helvetica">respond</text><text x="206" y="77" fill="#000000" font-family="Helvetica">prepared</text><text x="206" y="91" fill="#000000" font-family="Helvetica">HTML file</text></g><path d="M 163 84 L 118 84 Q 108 84 98 84 L 55 84" fill="none" stroke="#00cc00" stroke-miterlimit="10" stroke-dasharray="3 3" pointer-events="none"/><path d="M 63 79 L 54 84 L 63 88" fill="none" stroke="#00cc00" stroke-miterlimit="10" pointer-events="none"/></g></svg>