<svg xmlns="http://www.w3.org/2000/svg" width="256" height="256" viewBox="0 0 100 100"><rect width="100" height="100" rx="20" fill="#3d405b"></rect><path fill="#fff" d="M18.44 36.37L18.44 36.37L24.77 36.37Q26.84 36.41 26.49 38.16L26.49 38.16L16.33 76.84Q15.86 78.52 13.99 78.55L13.99 78.55L7.66 78.55Q5.59 78.52 5.94 76.76L5.94 76.76L16.10 38.09Q16.56 36.41 18.44 36.37ZM18.05 25.90L18.05 25.90Q18.05 24.18 19.02 22.77L19.02 22.77Q20.70 20.43 23.83 20.43L23.83 20.43L24.92 20.43Q26.56 20.43 28.09 21.72L28.09 21.72Q30.16 23.52 30.16 25.90L30.16 25.90Q30.16 27.62 29.10 29.02L29.10 29.02Q27.38 31.29 24.22 31.29L24.22 31.29L23.20 31.29Q21.52 31.29 20.08 30.08L20.08 30.08Q18.05 28.40 18.05 25.90ZM46.56 45.90L46.56 45.90Q48.09 45.43 49.61 44.14L49.61 44.14Q52.07 41.99 52.35 39.57L52.35 39.57Q52.50 38.16 52.46 37.66L52.46 37.66Q52.11 33.55 48.52 33.52L48.52 33.52Q47.11 33.52 45.94 34.53L45.94 34.53Q43.67 36.45 43.67 40.27L43.67 40.27Q43.83 43.67 46.56 45.90ZM45.00 56.33L45.00 56.33Q43.24 57.50 41.68 59.18L41.68 59.18Q38.36 62.77 38.36 65.74L38.36 65.74Q38.36 71.05 41.64 71.05L41.64 71.05Q43.75 71.05 45.51 68.48L45.51 68.48Q47.42 65.47 47.42 61.37L47.42 61.37Q47.42 57.93 45.00 56.33ZM36.76 52.42L36.76 52.42Q35.90 51.60 35.16 50.51L35.16 50.51Q32.66 46.80 32.66 42.30L32.66 42.30Q32.66 40.94 32.93 39.45L32.93 39.45Q33.99 33.63 38.28 29.34L38.28 29.34Q43.40 24.26 50.31 24.26L50.31 24.26Q55.08 24.26 58.40 26.80L58.40 26.80Q62.89 30.20 62.89 36.45L62.89 36.45Q62.89 41.72 59.10 46.33L59.10 46.33Q57.85 47.81 54.81 50.59L54.81 50.59Q54.92 50.66 55.08 50.78L55.08 50.78Q58.99 53.98 58.99 61.13L58.99 61.13Q58.99 62.77 58.56 64.57L58.56 64.57Q57.23 70.20 52.70 74.41L52.70 74.41Q47.19 79.57 40.00 79.57L40.00 79.57Q35.59 79.57 32.54 77.58L32.54 77.58Q27.81 74.45 27.81 67.62L27.81 67.62Q27.81 63.71 29.53 60.35L29.53 60.35Q31.52 56.45 36.76 52.42ZM92.81 42.62L71.64 70.66L76.33 70.66L76.80 68.87Q77.19 67.34 79.22 67.15L79.22 67.15L84.85 66.68Q85.20 66.68 85.51 66.72L85.51 66.72Q86.95 66.99 86.56 68.55L86.56 68.55L84.38 76.84Q83.91 78.52 82.03 78.55L82.03 78.55L81.64 78.55L76.49 78.55L60.39 78.55Q58.24 78.52 57.66 76.95L57.66 76.95Q57.11 75.35 58.44 73.63L58.44 73.63Q58.44 73.63 80.43 44.18L80.43 44.18L75.94 44.18L75.47 46.05Q75.08 47.58 73.05 47.77L73.05 47.77L67.42 48.24Q67.07 48.24 66.76 48.20L66.76 48.20Q65.31 47.93 65.70 46.37L65.70 46.37L67.97 37.93Q68.44 36.41 70.24 36.37L70.24 36.37L90.94 36.37Q92.58 36.41 93.56 37.70L93.56 37.70Q94.96 39.73 92.81 42.62L92.81 42.62Z"></path></svg>