<?xml version="1.0" encoding="UTF-8" standalone="no"?>
<svg
   xmlns:dc="http://purl.org/dc/elements/1.1/"
   xmlns:cc="http://creativecommons.org/ns#"
   xmlns:rdf="http://www.w3.org/1999/02/22-rdf-syntax-ns#"
   xmlns:svg="http://www.w3.org/2000/svg"
   xmlns="http://www.w3.org/2000/svg"
   xmlns:sodipodi="http://sodipodi.sourceforge.net/DTD/sodipodi-0.dtd"
   xmlns:inkscape="http://www.inkscape.org/namespaces/inkscape"
   width="311"
   height="321"
   version="1.1"
   id="svg2"
   inkscape:version="0.48.3.1 r9886"
   sodipodi:docname="update_handler_flow.svg">
  <metadata
     id="metadata342">
    <rdf:RDF>
      <cc:Work
         rdf:about="">
        <dc:format>image/svg+xml</dc:format>
        <dc:type
           rdf:resource="http://purl.org/dc/dcmitype/StillImage" />
        <dc:title />
      </cc:Work>
    </rdf:RDF>
  </metadata>
  <sodipodi:namedview
     pagecolor="#ffffff"
     bordercolor="#666666"
     borderopacity="1"
     objecttolerance="10"
     gridtolerance="10"
     guidetolerance="10"
     inkscape:pageopacity="0"
     inkscape:pageshadow="2"
     inkscape:window-width="640"
     inkscape:window-height="480"
     id="namedview340"
     showgrid="false"
     inkscape:zoom="0.75884244"
     inkscape:cx="150"
     inkscape:cy="161.5"
     inkscape:window-x="400"
     inkscape:window-y="180"
     inkscape:window-maximized="0"
     inkscape:current-layer="svg2"
     fit-margin-top="10"
     fit-margin-right="10"
     fit-margin-bottom="10"
     fit-margin-left="0" />
  <defs
     id="defs4" />
  <g
     transform="translate(-1.5,4.5)"
     id="g6">
    <ellipse
       cx="28"
       cy="17"
       rx="11"
       ry="11"
       transform="translate(2,3)"
       id="ellipse8"
       d="M 39,17 C 39,23.075132 34.075132,28 28,28 21.924868,28 17,23.075132 17,17 17,10.924868 21.924868,6 28,6 c 6.075132,0 11,4.924868 11,11 z"
       sodipodi:cx="28"
       sodipodi:cy="17"
       sodipodi:rx="11"
       sodipodi:ry="11"
       style="fill:#d0d0d0;stroke:#d0d0d0" />
    <ellipse
       cx="28"
       cy="17"
       rx="11"
       ry="11"
       pointer-events="none"
       id="ellipse10"
       d="M 39,17 C 39,23.075132 34.075132,28 28,28 21.924868,28 17,23.075132 17,17 17,10.924868 21.924868,6 28,6 c 6.075132,0 11,4.924868 11,11 z"
       sodipodi:cx="28"
       sodipodi:cy="17"
       sodipodi:rx="11"
       sodipodi:ry="11"
       style="fill:#000000;stroke:#ff0000" />
    <path
       d="m 28,32 0,4 q 0,5 0,4 l 0,-1"
       stroke-miterlimit="10"
       transform="translate(2,3)"
       id="path12"
       inkscape:connector-curvature="0"
       style="fill:none;stroke:#d0d0d0;stroke-miterlimit:10" />
    <path
       d="m 28,32 0,4 q 0,5 0,4 l 0,-1"
       stroke-miterlimit="10"
       pointer-events="none"
       id="path14"
       inkscape:connector-curvature="0"
       style="fill:none;stroke:#000000;stroke-miterlimit:10" />
    <path
       d="m 28,48 -4,-9 9,0 z"
       stroke-miterlimit="10"
       pointer-events="none"
       id="path16"
       inkscape:connector-curvature="0"
       style="fill:#000000;stroke:#000000;stroke-miterlimit:10" />
    <path
       d="M 28,49 39,59 28,69 17,59 z"
       stroke-miterlimit="10"
       transform="translate(2,3)"
       id="path18"
       inkscape:connector-curvature="0"
       style="fill:#d0d0d0;stroke:#d0d0d0;stroke-miterlimit:10" />
    <path
       d="M 28,49 39,59 28,69 17,59 z"
       stroke-miterlimit="10"
       pointer-events="none"
       id="path20"
       inkscape:connector-curvature="0"
       style="fill:#ffffc0;stroke:#ff0000;stroke-miterlimit:10" />
    <path
       d="m 39,59 64,0 q 10,0 20,0 l 54,0"
       stroke-miterlimit="10"
       transform="translate(2,3)"
       id="path22"
       inkscape:connector-curvature="0"
       style="fill:none;stroke:#d0d0d0;stroke-miterlimit:10" />
    <path
       d="m 39,59 64,0 q 10,0 20,0 l 54,0"
       stroke-miterlimit="10"
       pointer-events="none"
       id="path24"
       inkscape:connector-curvature="0"
       style="fill:none;stroke:#000000;stroke-miterlimit:10" />
    <path
       d="m 186,59 -9,5 0,-9 z"
       stroke-miterlimit="10"
       pointer-events="none"
       id="path26"
       inkscape:connector-curvature="0"
       style="fill:#000000;stroke:#000000;stroke-miterlimit:10" />
    <g
       font-size="11px"
       id="g28"
       style="font-size:11px">
      <rect
         x="40"
         y="44"
         width="51"
         height="14"
         id="rect30"
         style="fill:#ffffff;stroke:none" />
      <text
         x="41"
         y="53"
         id="text32"
         style="fill:#000000;font-family:Helvetica">/url/create</text>
    </g>
    <path
       d="m 28,111 0,-5 q 0,-4 0,-4 l 0,0"
       stroke-miterlimit="10"
       transform="translate(2,3)"
       id="path34"
       inkscape:connector-curvature="0"
       style="fill:none;stroke:#d0d0d0;stroke-miterlimit:10" />
    <path
       d="m 28,111 0,-5 q 0,-4 0,-4 l 0,0"
       stroke-miterlimit="10"
       pointer-events="none"
       id="path36"
       inkscape:connector-curvature="0"
       style="fill:none;stroke:#ff0000;stroke-miterlimit:10" />
    <path
       d="m 28,93 5,9 -9,0 z"
       stroke-miterlimit="10"
       pointer-events="none"
       id="path38"
       inkscape:connector-curvature="0"
       style="fill:#ff0000;stroke:#ff0000;stroke-miterlimit:10" />
    <g
       font-size="11px"
       id="g40"
       style="font-size:11px">
      <rect
         x="37"
         y="86"
         width="26"
         height="14"
         id="rect42"
         style="fill:#ffffff;stroke:none" />
      <text
         x="37"
         y="95"
         id="text44"
         style="fill:#000000;font-family:Helvetica">doc?</text>
    </g>
    <rect
       x="187"
       y="50"
       width="86"
       height="18"
       transform="translate(2,3)"
       id="rect46"
       style="fill:#d0d0d0;stroke:#d0d0d0" />
    <rect
       x="187"
       y="50"
       width="86"
       height="18"
       pointer-events="none"
       id="rect48"
       style="fill:#ffffff;stroke:#000000" />
    <g
       font-size="12px"
       id="g50"
       style="font-size:12px;text-anchor:middle">
      <text
         x="230"
         y="63"
         id="text52"
         style="fill:#000000;font-family:Helvetica">doc template</text>
    </g>
    <rect
       x="175"
       y="107"
       width="53"
       height="21"
       transform="translate(2,3)"
       id="rect54"
       style="fill:#d0d0d0;stroke:#d0d0d0" />
    <rect
       x="175"
       y="107"
       width="53"
       height="21"
       pointer-events="none"
       id="rect56"
       style="fill:#ffffff;stroke:#000000" />
    <g
       font-size="12px"
       id="g58"
       style="font-size:12px;text-anchor:middle">
      <text
         x="202"
         y="122"
         id="text60"
         style="fill:#000000;font-family:Helvetica">titled url</text>
    </g>
    <path
       d="m 230,81 11,10 -11,10 -11,-10 z"
       stroke-miterlimit="10"
       transform="translate(2,3)"
       id="path62"
       inkscape:connector-curvature="0"
       style="fill:#d0d0d0;stroke:#d0d0d0;stroke-miterlimit:10" />
    <path
       d="m 230,81 11,10 -11,10 -11,-10 z"
       stroke-miterlimit="10"
       pointer-events="none"
       id="path64"
       inkscape:connector-curvature="0"
       style="fill:#ffffc0;stroke:#ff0000;stroke-miterlimit:10" />
    <path
       d="m 230,68 0,5"
       stroke-miterlimit="10"
       transform="translate(2,3)"
       id="path66"
       inkscape:connector-curvature="0"
       style="fill:none;stroke:#d0d0d0;stroke-miterlimit:10" />
    <path
       d="m 230,68 0,5"
       stroke-miterlimit="10"
       pointer-events="none"
       id="path68"
       inkscape:connector-curvature="0"
       style="fill:none;stroke:#000000;stroke-miterlimit:10" />
    <path
       d="m 230,80 -3,-7 7,0 z"
       stroke-miterlimit="10"
       pointer-events="none"
       id="path70"
       inkscape:connector-curvature="0"
       style="fill:#000000;stroke:#000000;stroke-miterlimit:10" />
    <g
       font-size="11px"
       id="g72"
       style="font-size:11px;text-anchor:middle">
      <rect
         x="242"
         y="70"
         width="30"
         height="14"
         id="rect74"
         style="fill:#ffffff;stroke:none" />
      <text
         x="256"
         y="80"
         id="text76"
         style="fill:#000000;font-family:Helvetica">?title=</text>
    </g>
    <path
       d="m 219,92 -23,11"
       stroke-miterlimit="10"
       transform="translate(2,3)"
       id="path78"
       inkscape:connector-curvature="0"
       style="fill:none;stroke:#d0d0d0;stroke-miterlimit:10" />
    <path
       d="m 219,92 -23,11"
       stroke-miterlimit="10"
       pointer-events="none"
       id="path80"
       inkscape:connector-curvature="0"
       style="fill:none;stroke:#000000;stroke-miterlimit:10" />
    <path
       d="m 189,107 5,-7 3,7 z"
       stroke-miterlimit="10"
       pointer-events="none"
       id="path82"
       inkscape:connector-curvature="0"
       style="fill:#000000;stroke:#000000;stroke-miterlimit:10" />
    <g
       font-size="11px"
       id="g84"
       style="font-size:11px;text-anchor:middle">
      <rect
         x="190"
         y="88"
         width="20"
         height="14"
         id="rect86"
         style="fill:#ffffff;stroke:none" />
      <text
         x="199"
         y="97"
         id="text88"
         style="fill:#000000;font-family:Helvetica">yes</text>
    </g>
    <path
       d="m 241,91 34,13"
       stroke-miterlimit="10"
       transform="translate(2,3)"
       id="path90"
       inkscape:connector-curvature="0"
       style="fill:none;stroke:#d0d0d0;stroke-miterlimit:10" />
    <path
       d="m 241,91 34,13"
       stroke-miterlimit="10"
       pointer-events="none"
       id="path92"
       inkscape:connector-curvature="0"
       style="fill:none;stroke:#000000;stroke-miterlimit:10" />
    <path
       d="m 282,107 -8,0 2,-6 z"
       stroke-miterlimit="10"
       pointer-events="none"
       id="path94"
       inkscape:connector-curvature="0"
       style="fill:#000000;stroke:#000000;stroke-miterlimit:10" />
    <g
       font-size="11px"
       id="g96"
       style="font-size:11px;text-anchor:middle">
      <rect
         x="259"
         y="86"
         width="14"
         height="14"
         id="rect98"
         style="fill:#ffffff;stroke:none" />
      <text
         x="266"
         y="96"
         id="text100"
         style="fill:#000000;font-family:Helvetica">no</text>
    </g>
    <rect
       x="231"
       y="107"
       width="69"
       height="21"
       transform="translate(2,3)"
       id="rect102"
       style="fill:#d0d0d0;stroke:#d0d0d0" />
    <rect
       x="231"
       y="107"
       width="69"
       height="21"
       pointer-events="none"
       id="rect104"
       style="fill:#ffffff;stroke:#000000" />
    <g
       font-size="12px"
       id="g106"
       style="font-size:12px;text-anchor:middle">
      <text
         x="266"
         y="122"
         id="text108"
         style="fill:#000000;font-family:Helvetica">hashed url</text>
    </g>
    <path
       d="m 39,101 25,0"
       stroke-miterlimit="10"
       transform="translate(2,3)"
       id="path110"
       inkscape:connector-curvature="0"
       style="fill:none;stroke:#d0d0d0;stroke-miterlimit:10" />
    <path
       d="m 39,101 25,0"
       stroke-miterlimit="10"
       pointer-events="none"
       id="path112"
       inkscape:connector-curvature="0"
       style="fill:none;stroke:#000000;stroke-miterlimit:10" />
    <path
       d="m 71,101 -7,4 0,-7 z"
       stroke-miterlimit="10"
       pointer-events="none"
       id="path114"
       inkscape:connector-curvature="0"
       style="fill:#000000;stroke:#000000;stroke-miterlimit:10" />
    <g
       font-size="11px"
       id="g116"
       style="font-size:11px;text-anchor:middle">
      <rect
         x="44"
         y="95"
         width="20"
         height="14"
         id="rect118"
         style="fill:#ffffff;stroke:none" />
      <text
         x="54"
         y="105"
         id="text120"
         style="fill:#000000;font-family:Helvetica">yes</text>
    </g>
    <path
       d="M 28,91 39,101 28,111 17,101 z"
       stroke-miterlimit="10"
       transform="translate(2,3)"
       id="path122"
       inkscape:connector-curvature="0"
       style="fill:#d0d0d0;stroke:#d0d0d0;stroke-miterlimit:10" />
    <path
       d="M 28,91 39,101 28,111 17,101 z"
       stroke-miterlimit="10"
       pointer-events="none"
       id="path124"
       inkscape:connector-curvature="0"
       style="fill:#ffffc0;stroke:#ff0000;stroke-miterlimit:10" />
    <path
       d="m 28,69 0,6 q 0,5 0,5 l 0,1"
       stroke-miterlimit="10"
       transform="translate(2,3)"
       id="path126"
       inkscape:connector-curvature="0"
       style="fill:none;stroke:#d0d0d0;stroke-miterlimit:10" />
    <path
       d="m 28,69 0,6 q 0,5 0,5 l 0,1"
       stroke-miterlimit="10"
       pointer-events="none"
       id="path128"
       inkscape:connector-curvature="0"
       style="fill:none;stroke:#000000;stroke-miterlimit:10" />
    <path
       d="m 28,90 -4,-9 9,0 z"
       stroke-miterlimit="10"
       pointer-events="none"
       id="path130"
       inkscape:connector-curvature="0"
       style="fill:#000000;stroke:#000000;stroke-miterlimit:10" />
    <g
       font-size="11px"
       id="g132"
       style="font-size:11px">
      <rect
         x="17"
         y="67"
         width="31"
         height="14"
         id="rect134"
         style="fill:#ffffff;stroke:none" />
      <text
         x="17"
         y="76"
         id="text136"
         style="fill:#000000;font-family:Helvetica">/url/:id</text>
    </g>
    <path
       d="M 83,91 94,101 83,111 72,101 z"
       stroke-miterlimit="10"
       transform="translate(2,3)"
       id="path138"
       inkscape:connector-curvature="0"
       style="fill:#d0d0d0;stroke:#d0d0d0;stroke-miterlimit:10" />
    <path
       d="M 83,91 94,101 83,111 72,101 z"
       stroke-miterlimit="10"
       pointer-events="none"
       id="path140"
       inkscape:connector-curvature="0"
       style="fill:#ffffc0;stroke:#ff0000;stroke-miterlimit:10" />
    <rect
       x="2"
       y="202"
       width="51"
       height="40"
       transform="translate(2,3)"
       id="rect142"
       style="fill:#d0d0d0;stroke:#d0d0d0" />
    <rect
       x="2"
       y="202"
       width="51"
       height="40"
       pointer-events="none"
       id="rect144"
       style="fill:#ffffff;stroke:#000000" />
    <g
       font-size="12px"
       id="g146"
       style="font-size:12px;text-anchor:middle">
      <text
         x="28"
         y="219"
         id="text148"
         style="fill:#000000;font-family:Helvetica">no write</text>
      <text
         x="28"
         y="233"
         id="text150"
         style="fill:#000000;font-family:Helvetica">404</text>
    </g>
    <path
       d="m 28,111 0,83"
       stroke-miterlimit="10"
       transform="translate(2,3)"
       id="path152"
       inkscape:connector-curvature="0"
       style="fill:none;stroke:#d0d0d0;stroke-miterlimit:10" />
    <path
       d="m 28,111 0,83"
       stroke-miterlimit="10"
       pointer-events="none"
       id="path154"
       inkscape:connector-curvature="0"
       style="fill:none;stroke:#000000;stroke-miterlimit:10" />
    <path
       d="m 28,201 -4,-7 7,0 z"
       stroke-miterlimit="10"
       pointer-events="none"
       id="path156"
       inkscape:connector-curvature="0"
       style="fill:#000000;stroke:#000000;stroke-miterlimit:10" />
    <g
       font-size="11px"
       id="g158"
       style="font-size:11px;text-anchor:middle">
      <rect
         x="21"
         y="114"
         width="14"
         height="14"
         id="rect160"
         style="fill:#ffffff;stroke:none" />
      <text
         x="28"
         y="124"
         id="text162"
         style="fill:#000000;font-family:Helvetica">no</text>
    </g>
    <rect
       x="58"
       y="69"
       width="43"
       height="14"
       transform="translate(2,3)"
       id="rect164"
       style="fill:none;stroke:none" />
    <rect
       x="58"
       y="69"
       width="43"
       height="14"
       pointer-events="none"
       id="rect166"
       style="fill:none;stroke:none" />
    <g
       font-size="11px"
       id="g168"
       style="font-size:11px;text-anchor:middle">
      <text
         x="79"
         y="72"
         id="text170"
         style="fill:#000000;font-family:Helvetica">method</text>
      <text
         x="79"
         y="85"
         id="text172"
         style="fill:#000000;font-family:Helvetica">GET?</text>
    </g>
    <path
       d="m 114,92 10,10 -10,10 -11,-10 z"
       stroke-miterlimit="10"
       transform="translate(2,3)"
       id="path174"
       inkscape:connector-curvature="0"
       style="fill:#d0d0d0;stroke:#d0d0d0;stroke-miterlimit:10" />
    <path
       d="m 114,92 10,10 -10,10 -11,-10 z"
       stroke-miterlimit="10"
       pointer-events="none"
       id="path176"
       inkscape:connector-curvature="0"
       style="fill:#ffffc0;stroke:#ff0000;stroke-miterlimit:10" />
    <path
       d="m 94,101 1,0"
       stroke-miterlimit="10"
       transform="translate(2,3)"
       id="path178"
       inkscape:connector-curvature="0"
       style="fill:none;stroke:#d0d0d0;stroke-miterlimit:10" />
    <path
       d="m 94,101 1,0"
       stroke-miterlimit="10"
       pointer-events="none"
       id="path180"
       inkscape:connector-curvature="0"
       style="fill:none;stroke:#000000;stroke-miterlimit:10" />
    <path
       d="m 102,102 -7,3 0,-7 z"
       stroke-miterlimit="10"
       pointer-events="none"
       id="path182"
       inkscape:connector-curvature="0"
       style="fill:#000000;stroke:#000000;stroke-miterlimit:10" />
    <g
       font-size="11px"
       id="g184"
       style="font-size:11px;text-anchor:middle">
      <rect
         x="89"
         y="86"
         width="14"
         height="14"
         id="rect186"
         style="fill:#ffffff;stroke:none" />
      <text
         x="95"
         y="96"
         id="text188"
         style="fill:#000000;font-family:Helvetica">no</text>
    </g>
    <rect
       x="102"
       y="69"
       width="51"
       height="14"
       transform="translate(2,3)"
       id="rect190"
       style="fill:none;stroke:none" />
    <rect
       x="102"
       y="69"
       width="51"
       height="14"
       pointer-events="none"
       id="rect192"
       style="fill:none;stroke:none" />
    <g
       font-size="11px"
       id="g194"
       style="font-size:11px;text-anchor:middle">
      <text
         x="127"
         y="72"
         id="text196"
         style="fill:#000000;font-family:Helvetica">method</text>
      <text
         x="127"
         y="85"
         id="text198"
         style="fill:#000000;font-family:Helvetica">DELETE?</text>
    </g>
    <rect
       x="55"
       y="202"
       width="56"
       height="40"
       transform="translate(2,3)"
       id="rect200"
       style="fill:#d0d0d0;stroke:#d0d0d0" />
    <rect
       x="55"
       y="202"
       width="56"
       height="40"
       pointer-events="none"
       id="rect202"
       style="fill:#ffffff;stroke:#000000" />
    <g
       font-size="12px"
       id="g204"
       style="font-size:12px;text-anchor:middle">
      <text
         x="83"
         y="219"
         id="text206"
         style="fill:#000000;font-family:Helvetica">no write</text>
      <text
         x="83"
         y="233"
         id="text208"
         style="fill:#000000;font-family:Helvetica">302</text>
    </g>
    <path
       d="m 83,111 0,83"
       stroke-miterlimit="10"
       transform="translate(2,3)"
       id="path210"
       inkscape:connector-curvature="0"
       style="fill:none;stroke:#d0d0d0;stroke-miterlimit:10" />
    <path
       d="m 83,111 0,83"
       stroke-miterlimit="10"
       pointer-events="none"
       id="path212"
       inkscape:connector-curvature="0"
       style="fill:none;stroke:#000000;stroke-miterlimit:10" />
    <path
       d="m 83,201 -4,-7 7,0 z"
       stroke-miterlimit="10"
       pointer-events="none"
       id="path214"
       inkscape:connector-curvature="0"
       style="fill:#000000;stroke:#000000;stroke-miterlimit:10" />
    <g
       font-size="11px"
       id="g216"
       style="font-size:11px;text-anchor:middle">
      <rect
         x="73"
         y="114"
         width="20"
         height="14"
         id="rect218"
         style="fill:#ffffff;stroke:none" />
      <text
         x="83"
         y="124"
         id="text220"
         style="fill:#000000;font-family:Helvetica">yes</text>
    </g>
    <path
       d="m 114,184 0,4 q 0,4 10,4 l 38,0 q 10,0 10,1 l 0,1"
       stroke-miterlimit="10"
       transform="translate(2,3)"
       id="path222"
       inkscape:connector-curvature="0"
       style="fill:none;stroke:#d0d0d0;stroke-miterlimit:10" />
    <path
       d="m 114,184 0,4 q 0,4 10,4 l 38,0 q 10,0 10,1 l 0,1"
       stroke-miterlimit="10"
       pointer-events="none"
       id="path224"
       inkscape:connector-curvature="0"
       style="fill:none;stroke:#000000;stroke-miterlimit:10" />
    <path
       d="m 172,201 -3,-7 7,0 z"
       stroke-miterlimit="10"
       pointer-events="none"
       id="path226"
       inkscape:connector-curvature="0"
       style="fill:#000000;stroke:#000000;stroke-miterlimit:10" />
    <rect
       x="144"
       y="202"
       width="56"
       height="40"
       transform="translate(2,3)"
       id="rect228"
       style="fill:#d0d0d0;stroke:#d0d0d0" />
    <rect
       x="144"
       y="202"
       width="56"
       height="40"
       pointer-events="none"
       id="rect230"
       style="fill:#ffffff;stroke:#000000" />
    <g
       font-size="12px"
       id="g232"
       style="font-size:12px;text-anchor:middle">
      <text
         x="172"
         y="219"
         id="text234"
         style="fill:#000000;font-family:Helvetica">write</text>
      <text
         x="172"
         y="233"
         id="text236"
         style="fill:#000000;font-family:Helvetica">200</text>
    </g>
    <rect
       x="86"
       y="144"
       width="56"
       height="40"
       transform="translate(2,3)"
       id="rect238"
       style="fill:#d0d0d0;stroke:#d0d0d0" />
    <rect
       x="86"
       y="144"
       width="56"
       height="40"
       pointer-events="none"
       id="rect240"
       style="fill:#ffffff;stroke:#000000" />
    <g
       font-size="12px"
       id="g242"
       style="font-size:12px;text-anchor:middle">
      <text
         x="114"
         y="161"
         id="text244"
         style="fill:#000000;font-family:Helvetica">_deleted</text>
      <text
         x="114"
         y="175"
         id="text246"
         style="fill:#000000;font-family:Helvetica">true</text>
    </g>
    <path
       d="m 114,112 0,24"
       stroke-miterlimit="10"
       transform="translate(2,3)"
       id="path248"
       inkscape:connector-curvature="0"
       style="fill:none;stroke:#d0d0d0;stroke-miterlimit:10" />
    <path
       d="m 114,112 0,24"
       stroke-miterlimit="10"
       pointer-events="none"
       id="path250"
       inkscape:connector-curvature="0"
       style="fill:none;stroke:#000000;stroke-miterlimit:10" />
    <path
       d="m 114,143 -3,-7 7,0 z"
       stroke-miterlimit="10"
       pointer-events="none"
       id="path252"
       inkscape:connector-curvature="0"
       style="fill:#000000;stroke:#000000;stroke-miterlimit:10" />
    <g
       font-size="11px"
       id="g254"
       style="font-size:11px;text-anchor:middle">
      <rect
         x="105"
         y="116"
         width="20"
         height="14"
         id="rect256"
         style="fill:#ffffff;stroke:none" />
      <text
         x="114"
         y="126"
         id="text258"
         style="fill:#000000;font-family:Helvetica">yes</text>
    </g>
    <rect
       x="144"
       y="144"
       width="56"
       height="40"
       transform="translate(2,3)"
       id="rect260"
       style="fill:#d0d0d0;stroke:#d0d0d0" />
    <rect
       x="144"
       y="144"
       width="56"
       height="40"
       pointer-events="none"
       id="rect262"
       style="fill:#ffffff;stroke:#000000" />
    <g
       font-size="12px"
       id="g264"
       style="font-size:12px;text-anchor:middle">
      <text
         x="172"
         y="161"
         id="text266"
         style="fill:#000000;font-family:Helvetica">set</text>
      <text
         x="172"
         y="175"
         id="text268"
         style="fill:#000000;font-family:Helvetica">url</text>
    </g>
    <path
       d="m 124,102 38,0 q 10,0 10,10 l 0,23"
       stroke-miterlimit="10"
       transform="translate(2,3)"
       id="path270"
       inkscape:connector-curvature="0"
       style="fill:none;stroke:#d0d0d0;stroke-miterlimit:10" />
    <path
       d="m 124,102 38,0 q 10,0 10,10 l 0,23"
       stroke-miterlimit="10"
       pointer-events="none"
       id="path272"
       inkscape:connector-curvature="0"
       style="fill:none;stroke:#000000;stroke-miterlimit:10" />
    <path
       d="m 172,142 -4,-7 7,0 z"
       stroke-miterlimit="10"
       pointer-events="none"
       id="path274"
       inkscape:connector-curvature="0"
       style="fill:#000000;stroke:#000000;stroke-miterlimit:10" />
    <g
       font-size="11px"
       id="g276"
       style="font-size:11px;text-anchor:middle">
      <rect
         x="129"
         y="96"
         width="14"
         height="14"
         id="rect278"
         style="fill:#ffffff;stroke:none" />
      <text
         x="135"
         y="106"
         id="text280"
         style="fill:#000000;font-family:Helvetica">no</text>
    </g>
    <path
       d="m 172,184 0,10"
       stroke-miterlimit="10"
       transform="translate(2,3)"
       id="path282"
       inkscape:connector-curvature="0"
       style="fill:none;stroke:#d0d0d0;stroke-miterlimit:10" />
    <path
       d="m 172,184 0,10"
       stroke-miterlimit="10"
       pointer-events="none"
       id="path284"
       inkscape:connector-curvature="0"
       style="fill:none;stroke:#000000;stroke-miterlimit:10" />
    <path
       d="m 172,201 -3,-7 7,0 z"
       stroke-miterlimit="10"
       pointer-events="none"
       id="path286"
       inkscape:connector-curvature="0"
       style="fill:#000000;stroke:#000000;stroke-miterlimit:10" />
    <path
       d="m 234,184 0,4 q 0,4 -10,4 l -42,0 q -10,0 -10,1 l 0,1"
       stroke-miterlimit="10"
       transform="translate(2,3)"
       id="path288"
       inkscape:connector-curvature="0"
       style="fill:none;stroke:#d0d0d0;stroke-miterlimit:10" />
    <path
       d="m 234,184 0,4 q 0,4 -10,4 l -42,0 q -10,0 -10,1 l 0,1"
       stroke-miterlimit="10"
       pointer-events="none"
       id="path290"
       inkscape:connector-curvature="0"
       style="fill:none;stroke:#000000;stroke-miterlimit:10" />
    <path
       d="m 172,201 -3,-7 7,0 z"
       stroke-miterlimit="10"
       pointer-events="none"
       id="path292"
       inkscape:connector-curvature="0"
       style="fill:#000000;stroke:#000000;stroke-miterlimit:10" />
    <ellipse
       cx="28"
       cy="291"
       rx="11"
       ry="11"
       transform="translate(2,3)"
       id="ellipse294"
       d="m 39,291 c 0,6.07513 -4.924868,11 -11,11 -6.075132,0 -11,-4.92487 -11,-11 0,-6.07513 4.924868,-11 11,-11 6.075132,0 11,4.92487 11,11 z"
       sodipodi:cx="28"
       sodipodi:cy="291"
       sodipodi:rx="11"
       sodipodi:ry="11"
       style="fill:#d0d0d0;stroke:#d0d0d0" />
    <ellipse
       cx="28"
       cy="291"
       rx="11"
       ry="11"
       pointer-events="none"
       id="ellipse296"
       d="m 39,291 c 0,6.07513 -4.924868,11 -11,11 -6.075132,0 -11,-4.92487 -11,-11 0,-6.07513 4.924868,-11 11,-11 6.075132,0 11,4.92487 11,11 z"
       sodipodi:cx="28"
       sodipodi:cy="291"
       sodipodi:rx="11"
       sodipodi:ry="11"
       style="fill:#000000;stroke:#ff0000" />
    <ellipse
       cx="28"
       cy="291"
       rx="15"
       ry="15"
       pointer-events="none"
       id="ellipse298"
       d="m 43,291 c 0,8.28427 -6.715729,15 -15,15 -8.284271,0 -15,-6.71573 -15,-15 0,-8.28427 6.715729,-15 15,-15 8.284271,0 15,6.71573 15,15 z"
       sodipodi:cx="28"
       sodipodi:cy="291"
       sodipodi:rx="15"
       sodipodi:ry="15"
       style="fill:none;stroke:#ff0000" />
    <path
       d="m 28,242 0,26"
       stroke-miterlimit="10"
       transform="translate(2,3)"
       id="path300"
       inkscape:connector-curvature="0"
       style="fill:none;stroke:#d0d0d0;stroke-miterlimit:10" />
    <path
       d="m 28,242 0,26"
       stroke-miterlimit="10"
       pointer-events="none"
       id="path302"
       inkscape:connector-curvature="0"
       style="fill:none;stroke:#000000;stroke-miterlimit:10" />
    <path
       d="m 28,275 -4,-7 7,0 z"
       stroke-miterlimit="10"
       pointer-events="none"
       id="path304"
       inkscape:connector-curvature="0"
       style="fill:#000000;stroke:#000000;stroke-miterlimit:10" />
    <path
       d="m 85,242 0,5 q 1,5 -9,5 l -38,0 q -10,0 -10,8 l 0,8"
       stroke-miterlimit="10"
       transform="translate(2,3)"
       id="path306"
       inkscape:connector-curvature="0"
       style="fill:none;stroke:#d0d0d0;stroke-miterlimit:10" />
    <path
       d="m 85,242 0,5 q 1,5 -9,5 l -38,0 q -10,0 -10,8 l 0,8"
       stroke-miterlimit="10"
       pointer-events="none"
       id="path308"
       inkscape:connector-curvature="0"
       style="fill:none;stroke:#000000;stroke-miterlimit:10" />
    <path
       d="m 28,275 -4,-7 7,0 z"
       stroke-miterlimit="10"
       pointer-events="none"
       id="path310"
       inkscape:connector-curvature="0"
       style="fill:#000000;stroke:#000000;stroke-miterlimit:10" />
    <path
       d="m 172,242 0,5 q 0,5 -10,5 l -124,0 q -10,0 -10,8 l 0,8"
       stroke-miterlimit="10"
       transform="translate(2,3)"
       id="path312"
       inkscape:connector-curvature="0"
       style="fill:none;stroke:#d0d0d0;stroke-miterlimit:10" />
    <path
       d="m 172,242 0,5 q 0,5 -10,5 l -124,0 q -10,0 -10,8 l 0,8"
       stroke-miterlimit="10"
       pointer-events="none"
       id="path314"
       inkscape:connector-curvature="0"
       style="fill:none;stroke:#000000;stroke-miterlimit:10" />
    <path
       d="m 28,275 -4,-7 7,0 z"
       stroke-miterlimit="10"
       pointer-events="none"
       id="path316"
       inkscape:connector-curvature="0"
       style="fill:#000000;stroke:#000000;stroke-miterlimit:10" />
    <rect
       x="206"
       y="144"
       width="56"
       height="40"
       transform="translate(2,3)"
       id="rect318"
       style="fill:#d0d0d0;stroke:#d0d0d0" />
    <rect
       x="206"
       y="144"
       width="56"
       height="40"
       pointer-events="none"
       id="rect320"
       style="fill:#ffffff;stroke:#000000" />
    <g
       font-size="12px"
       id="g322"
       style="font-size:12px;text-anchor:middle">
      <text
         x="234"
         y="161"
         id="text324"
         style="fill:#000000;font-family:Helvetica">build/set</text>
      <text
         x="234"
         y="175"
         id="text326"
         style="fill:#000000;font-family:Helvetica">url</text>
    </g>
    <path
       d="m 188,128 25,12"
       stroke-miterlimit="10"
       transform="translate(2,3)"
       id="path328"
       inkscape:connector-curvature="0"
       style="fill:none;stroke:#d0d0d0;stroke-miterlimit:10" />
    <path
       d="m 188,128 25,12"
       stroke-miterlimit="10"
       pointer-events="none"
       id="path330"
       inkscape:connector-curvature="0"
       style="fill:none;stroke:#000000;stroke-miterlimit:10" />
    <path
       d="m 219,143 -8,0 3,-6 z"
       stroke-miterlimit="10"
       pointer-events="none"
       id="path332"
       inkscape:connector-curvature="0"
       style="fill:#000000;stroke:#000000;stroke-miterlimit:10" />
    <path
       d="m 283,128 -28,12"
       stroke-miterlimit="10"
       transform="translate(2,3)"
       id="path334"
       inkscape:connector-curvature="0"
       style="fill:none;stroke:#d0d0d0;stroke-miterlimit:10" />
    <path
       d="m 283,128 -28,12"
       stroke-miterlimit="10"
       pointer-events="none"
       id="path336"
       inkscape:connector-curvature="0"
       style="fill:none;stroke:#000000;stroke-miterlimit:10" />
    <path
       d="m 249,143 5,-6 3,6 z"
       stroke-miterlimit="10"
       pointer-events="none"
       id="path338"
       inkscape:connector-curvature="0"
       style="fill:#000000;stroke:#000000;stroke-miterlimit:10" />
  </g>
</svg>
